PathFileType	3	(X/Y/Z)	dance_move_1__view2_aligned.trc
DataRate	CameraRate	NumFrames	NumMarkers	Units	OrigDataRate	OrigDataStartFrame	OrigNumFrames
100.0	100.0	15	19	mm	100.0	467	890
Frame#	Time	pelvis			neck			head			hip_left			hip_right			knee_left			knee_right			ankle_left			ankle_right			heel_left			heel_right			toe_left			toe_right			shoulder_left			shoulder_right			elbow_left			elbow_right			wrist_left			wrist_right			
		X1	Y1	Z1	X2	Y2	Z2	X3	Y3	Z3	X4	Y4	Z4	X5	Y5	Z5	X6	Y6	Z6	X7	Y7	Z7	X8	Y8	Z8	X9	Y9	Z9	X10	Y10	Z10	X11	Y11	Z11	X12	Y12	Z12	X13	Y13	Z13	X14	Y14	Z14	X15	Y15	Z15	X16	Y16	Z16	X17	Y17	Z17	X18	Y18	Z18	X19	Y19	Z19	
467	4.66000	60.544279	735.618762	124.787890	42.264433	1200.583447	-185.335976	22.811613	1220.491902	-345.917898	-13.687899	732.838610	128.885348	134.776455	738.398915	120.690447	-127.444291	467.778715	-171.341285	196.692236	455.866856	-182.526052	-120.301279	125.725186	27.190783	206.404360	97.716492	-13.480729	-116.258933	87.915306	72.671560	202.711911	57.433604	30.147431	-137.459770	47.459394	-139.376166	238.831578	19.924004	-182.860580	-139.557823	1148.886769	-151.320088	224.554200	1165.575163	-162.008291	-117.716784	852.016645	-163.798247	277.269484	880.078435	-180.956028	-29.612708	616.066881	-241.498125	170.898596	664.334645	-269.655389
468	4.67000	61.585594	735.517948	124.485304	43.876989	1201.418876	-184.864204	24.528278	1221.500561	-345.487762	-12.725639	732.803182	128.848570	135.896729	738.232719	120.122038	-129.541245	468.118284	-169.232498	197.009495	455.855649	-182.720583	-121.358625	125.658470	27.897723	206.332708	97.809195	-13.748941	-116.974751	87.728693	73.171298	202.652534	57.570937	29.895000	-139.459985	47.741954	-138.722817	238.161670	19.905316	-183.188437	-137.936767	1150.502980	-150.634693	226.042501	1165.913585	-161.598532	-117.933550	854.070098	-162.845679	279.603339	880.644993	-180.076201	-31.424716	617.912667	-240.370824	174.457862	664.467836	-268.789420
469	4.68000	62.626908	735.417135	124.182717	45.489545	1202.254306	-184.392432	26.244942	1222.509219	-345.057625	-11.763380	732.767754	128.811792	137.017003	738.066522	119.553629	-131.638199	468.457852	-167.123711	197.326755	455.844441	-182.915113	-122.415970	125.591754	28.604663	206.261056	97.901898	-14.017154	-117.690570	87.542080	73.671037	202.593156	57.708271	29.642568	-141.460200	48.024514	-138.069467	237.491762	19.886627	-183.516294	-136.315711	1152.119191	-149.949299	227.530802	1166.252007	-161.188773	-118.150315	856.123551	-161.893110	281.937193	881.211551	-179.196374	-33.236724	619.758452	-239.243523	178.017128	664.601027	-267.923450
470	4.69000	63.668223	735.316321	123.880131	47.102100	1203.089736	-183.920660	27.961607	1223.517878	-344.627489	-10.801121	732.732326	128.775014	138.137277	737.900326	118.985220	-133.735153	468.797421	-165.014924	197.644015	455.833234	-183.109644	-123.473316	125.525037	29.311603	206.189404	97.994601	-14.285367	-118.406388	87.355468	74.170775	202.533779	57.845605	29.390137	-143.460415	48.307074	-137.416117	236.821854	19.867939	-183.844151	-134.694655	1153.735402	-149.263904	229.019103	1166.590429	-160.779013	-118.367081	858.177005	-160.940541	284.271048	881.778109	-178.316546	-35.048733	621.604237	-238.116223	181.576394	664.734218	-267.057481
471	4.70000	64.709537	735.215507	123.577545	48.714656	1203.925166	-183.448889	29.678271	1224.526536	-344.197352	-9.838861	732.696898	128.738236	139.257551	737.734130	118.416810	-135.832107	469.136990	-162.906137	197.961274	455.822026	-183.304175	-124.530662	125.458321	30.018543	206.117752	98.087304	-14.553580	-119.122207	87.168855	74.670513	202.474402	57.982939	29.137705	-145.460630	48.589634	-136.762767	236.151946	19.849251	-184.172008	-133.073599	1155.351613	-148.578510	230.507403	1166.928851	-160.369254	-118.583847	860.230458	-159.987972	286.604902	882.344667	-177.436719	-36.860741	623.450023	-236.988922	185.135660	664.867409	-266.191512
472	4.71000	65.750852	735.114694	123.274958	50.327212	1204.760596	-182.977117	31.394936	1225.535195	-343.767216	-8.876602	732.661470	128.701458	140.377826	737.567933	117.848401	-137.929061	469.476558	-160.797350	198.278534	455.810819	-183.498705	-125.588008	125.391605	30.725483	206.046100	98.180008	-14.821792	-119.838025	86.982242	75.170252	202.415025	58.120273	28.885274	-147.460845	48.872194	-136.109417	235.482038	19.830563	-184.499865	-131.452543	1156.967825	-147.893115	231.995704	1167.267273	-159.959495	-118.800613	862.283911	-159.035404	288.938757	882.911226	-176.556892	-38.672749	625.295808	-235.861621	188.694926	665.000600	-265.325542
473	4.72000	66.816388	735.670292	123.001644	52.713555	1206.206255	-182.583664	34.149042	1227.222615	-343.443881	-7.928518	733.314056	128.776800	141.560815	738.026543	117.226429	-141.733259	470.296920	-157.302973	200.585833	455.917937	-182.501318	-128.151784	125.324028	31.744160	208.565053	98.185646	-14.638785	-121.926640	86.699620	75.849953	204.923773	58.054930	28.934525	-151.144982	49.401590	-135.277177	238.069224	20.430905	-184.474737	-128.909229	1160.127587	-146.909490	233.947442	1167.726106	-159.473357	-121.000637	866.470796	-157.191106	293.073718	883.833746	-175.380745	-45.684908	628.868415	-233.443708	197.268257	664.824802	-264.119244
474	4.73000	67.881925	736.225890	122.728331	55.099898	1207.651915	-182.190210	36.903148	1228.910035	-343.120546	-6.980434	733.966642	128.852142	142.743805	738.485153	116.604456	-145.537458	471.117283	-153.808596	202.893133	456.025056	-181.503931	-130.715560	125.256451	32.762837	211.084007	98.191285	-14.455778	-124.015254	86.416998	76.529654	207.432522	57.989588	28.983777	-154.829119	49.930987	-134.444936	240.656409	21.031247	-184.449609	-126.365915	1163.287349	-145.925864	235.899180	1168.184939	-158.987218	-123.200660	870.657681	-155.346808	297.208679	884.756266	-174.204599	-52.697067	632.441023	-231.025795	205.841587	664.649004	-262.912946
475	4.74000	68.947461	736.781488	122.455017	57.486240	1209.097575	-181.796757	39.657254	1230.597455	-342.797212	-6.032351	734.619227	128.927484	143.926794	738.943763	115.982484	-149.341656	471.937645	-150.314219	205.200433	456.132175	-180.506543	-133.279336	125.188874	33.781513	213.602960	98.196924	-14.272770	-126.103868	86.134376	77.209355	209.941270	57.924246	29.033028	-158.513256	50.460383	-133.612695	243.243594	21.631589	-184.424481	-123.822602	1166.447112	-144.942238	237.850918	1168.643771	-158.501079	-125.400684	874.844566	-153.502510	301.343640	885.678787	-173.028453	-59.709226	636.013630	-228.607882	214.414918	664.473206	-261.706647
476	4.75000	70.012998	737.337085	122.181703	59.872583	1210.543235	-181.403304	42.411360	1232.284875	-342.473877	-5.084267	735.271813	129.002826	145.109784	739.402373	115.360511	-153.145854	472.758007	-146.819842	207.507732	456.239293	-179.509156	-135.843112	125.121297	34.800190	216.121914	98.202563	-14.089763	-128.192482	85.851754	77.889056	212.450019	57.858903	29.082279	-162.197393	50.989779	-132.780454	245.830780	22.231931	-184.399354	-121.279288	1169.606874	-143.958613	239.802656	1169.102604	-158.014941	-127.600708	879.031451	-151.658213	305.478600	886.601307	-171.852307	-66.721385	639.586237	-226.189969	222.988248	664.297408	-260.500349
477	4.76000	71.078534	737.892683	121.908389	62.258926	1211.988895	-181.009850	45.165466	1233.972295	-342.150542	-4.136183	735.924399	129.078169	146.292774	739.860984	114.738538	-156.950052	473.578370	-143.325465	209.815032	456.346412	-178.511769	-138.406888	125.053721	35.818867	218.640867	98.208202	-13.906756	-130.281096	85.569132	78.568757	214.958768	57.793561	29.131531	-165.881530	51.519175	-131.948213	248.417965	22.832273	-184.374226	-118.735974	1172.766636	-142.974987	241.754394	1169.561437	-157.528802	-129.800731	883.218337	-149.813915	309.613561	887.523827	-170.676160	-73.733545	643.158845	-223.772056	231.561579	664.121610	-259.294051
478	4.77000	72.144071	738.448281	121.635076	64.645268	1213.434555	-180.616397	47.919572	1235.659715	-341.827208	-3.188099	736.576985	129.153511	147.475763	740.319594	114.116566	-160.754250	474.398732	-139.831088	212.122331	456.453530	-177.514382	-140.970664	124.986144	36.837544	221.159821	98.213841	-13.723749	-132.369711	85.286510	79.248458	217.467516	57.728219	29.180782	-169.565666	52.048572	-131.115972	251.005151	23.432615	-184.349098	-116.192661	1175.926399	-141.991362	243.706131	1170.020270	-157.042664	-132.000755	887.405222	-147.969617	313.748522	888.446348	-169.500014	-80.745704	646.731452	-221.354144	240.134909	663.945812	-258.087753
479	4.78000	73.209607	739.003879	121.361762	67.031611	1214.880215	-180.222944	50.673678	1237.347135	-341.503873	-2.240015	737.229570	129.228853	148.658753	740.778204	113.494593	-164.558448	475.219094	-136.336711	214.429631	456.560649	-176.516994	-143.534440	124.918567	37.856220	223.678774	98.219479	-13.540741	-134.458325	85.003888	79.928159	219.976265	57.662876	29.230033	-173.249803	52.577968	-130.283731	253.592336	24.032957	-184.323971	-113.649347	1179.086161	-141.007736	245.657869	1170.479102	-156.556525	-134.200778	891.592107	-146.125319	317.883483	889.368868	-168.323868	-87.757863	650.304059	-218.936231	248.708240	663.770014	-256.881454
480	4.79000	74.275144	739.559477	121.088448	69.417954	1216.325875	-179.829490	53.427784	1239.034555	-341.180538	-1.291932	737.882156	129.304195	149.841742	741.236814	112.872620	-168.362646	476.039456	-132.842334	216.736931	456.667768	-175.519607	-146.098216	124.850990	38.874897	226.197728	98.225118	-13.357734	-136.546939	84.721266	80.607860	222.485014	57.597534	29.279285	-176.933940	53.107364	-129.451490	256.179522	24.633300	-184.298843	-111.106033	1182.245923	-140.024111	247.609607	1170.937935	-156.070387	-136.400802	895.778992	-144.281022	322.018444	890.291388	-167.147722	-94.770022	653.876667	-216.518318	257.281570	663.594216	-255.675156
481	4.80000	75.340680	740.115075	120.815135	71.804296	1217.771535	-179.436037	56.181890	1240.721974	-340.857203	-0.343848	738.534742	129.379537	151.024732	741.695424	112.250648	-172.166844	476.859819	-129.347958	219.044230	456.774886	-174.522220	-148.661992	124.783413	39.893574	228.716681	98.230757	-13.174727	-138.635553	84.438644	81.287561	224.993762	57.532192	29.328536	-180.618077	53.636761	-128.619250	258.766707	25.233642	-184.273715	-108.562720	1185.405686	-139.040485	249.561345	1171.396768	-155.584248	-138.600826	899.965877	-142.436724	326.153405	891.213909	-165.971576	-101.782181	657.449274	-214.100405	265.854901	663.418419	-254.468858
